# AST/ASF file generated using VICON BodyLanguage
# -----------------------------------------------
:version 1.10
:name VICON
:units
  mass 1.0
  length 0.45
  angle deg
:documentation
   .ast/.asf automatically generated from VICON data using
   VICON BodyBuilder and BodyLanguage model FoxedUp or BRILLIANT.MOD
:root
   order TX TY TZ RX RY RZ
   axis XYZ
   position 0 0 0  
   orientation 0 0 0 
:bonedata
  begin
     id 1 
     name lhipjoint
     direction 0.521689 -0.742065 0.420928 
     length 2.47002 
     axis 0 0 0  XYZ
  end
  begin
     id 2 
     name lfemur
     direction 0.34202 -0.939693 0  
     length 7.24654  
     axis 0 0 20  XYZ
    dof rx ry rz
    limits (-160.0 20.0)
           (-70.0 70.0)
           (-60.0 70.0)
  end
  begin
     id 3 
     name ltibia
     direction 0.34202 -0.939693 0   
     length 8.04849   
     axis 0 0 20   XYZ
    dof rx
    limits (-10.0 170.0)
  end
  begin
     id 4 
     name lfoot
     direction 0.0745411 -0.2048 0.975961   
     length 1.72367   
     axis -90 7.62852e-016 20   XYZ
    dof rx rz
    limits (-45.0 90.0)
           (-70.0 20.0)
  end
  begin
     id 5 
     name ltoes
     direction 1.53556e-011 -4.21901e-011 1   
     length 0.87311   
     axis -90 7.62852e-016 20   XYZ
    dof rx
    limits (-90.0 20.0)
  end
  begin
     id 6 
     name rhipjoint
     direction -0.52849 -0.738415 0.418857   
     length 2.48223  
     axis 0 0 0  XYZ 
  end
  begin
     id 7 
     name rfemur
     direction -0.34202 -0.939693 0   
     length 7.15571   
     axis 0 0 -20   XYZ
    dof rx ry rz
    limits (-160.0 20.0)
           (-70.0 70.0)
           (-70.0 60.0)
  end
  begin
     id 8 
     name rtibia
     direction -0.34202 -0.939693 0   
     length 7.81659   
     axis 0 0 -20   XYZ
    dof rx
    limits (-10.0 170.0)
 end
 begin
     id 9 
     name rfoot
     direction -0.0917348 -0.252039 0.963359   
     length 1.84382  
     axis -90 -7.62852e-016 -20   XYZ
    dof rx rz
    limits (-45.0 90.0)
           (-20.0 70.0)
  end
  begin
     id 10 
     name rtoes
     direction -1.53551e-011 -4.21879e-011 1   
     length 0.927771   
     axis -90 -7.62852e-016 -20   XYZ
    dof rx
    limits (-90.0 20.0)
  end
  begin
     id 11 
     name lowerback
     direction 0.00583058 0.999822 0.0179296   
     length 2.1429   
     axis 0 0 0   XYZ
    dof rx ry rz
    limits (-20.0 45.0)
           (-30.0 30.0)
           (-30.0 30.0)
  end
  begin
     id 12 
     name upperback
     direction -0.0137999 0.999752 -0.0175071   
     length 2.14252   
     axis 0 0 0   XYZ
    dof rx ry rz
    limits (-20.0 45.0)
           (-30.0 30.0)
           (-30.0 30.0)
  end
  begin
     id 13 
     name thorax
     direction -0.0158036 0.99955 -0.0254909   
     length 2.1383   
     axis 0 0 0   XYZ
    dof rx ry rz
    limits (-20.0 45.0)
           (-30.0 30.0)
           (-30.0 30.0)
  end
  begin
     id 14 
     name lowerneck
     direction -0.0101179 0.999403 -0.0330262   
     length 1.65808   
     axis 0 0 0   XYZ
    dof rx ry rz
    limits (-20.0 45.0)
           (-30.0 30.0)
           (-30.0 30.0)
  end
  begin
     id 15 
     name upperneck
     direction 0.0497734 0.995978 -0.074501   
     length 1.5897   
     axis 0 0 0   XYZ
    dof rx ry rz
    limits (-20.0 45.0)
           (-30.0 30.0)
           (-30.0 30.0)
  end
  begin
     id 16
     name head
     direction 0.0189524 0.999519 -0.0245438  
     length 1.74024  
     axis 0 0 0   XYZ
    dof rx ry rz
    limits (-20.0 45.0)
           (-30.0 30.0)
           (-30.0 30.0)
  end
  begin
     id 17 
     name lclavicle
     direction 0.945604 0.324422 0.0241537  
     length 3.59089  
     axis 0 0 0   XYZ
    dof ry rz
    limits (-20.0 10.0)
           (0.0 20.0)
  end
  begin
     id 18 
     name lhumerus
     direction 1 -4.48964e-011 -2.63524e-027   
     length 5.2391   
     axis 180 -30 -90   XYZ
    dof rx ry rz
    limits (-60.0 90.0)
           (-90.0 90.0)
           (-90.0 90.0)
  end
  begin
     id 19
     name lradius
     direction 1 -4.48969e-011 3.86978e-028   
     length 3.31467   
     axis 180 -30 -90   XYZ
    dof rx
    limits (-10.0 170.0)
  end
  begin
     id 20
     name lwrist
     direction 1 -4.48963e-011 7.20928e-028   
     length 1.65734   
     axis -5.52449e-016 90 90   XYZ
    dof ry
    limits (-180.0 0.0)
 end
  begin
     id 21 
     name lhand
     direction 1 -4.48964e-011 1.44186e-027   
     length 0.9659   
     axis -9.20027e-016 90 90   XYZ
    dof rx rz
    limits (-90.0 90.0)
           (-45.0 45.0)
  end
  begin
     id 22 
     name lfingers
     direction 1 -4.48965e-011 2.88371e-027   
     length 0.778733   
     axis -1.84005e-015 90 90   XYZ
    dof rx
    limits (0.0 90.0)
  end
  begin
     id 23
     name lthumb
     direction 0.707107 -6.34931e-011 0.707107   
     length 1.11811   
     axis -90 45 2.85299e-015   XYZ
    dof rx rz
    limits (-45.0 45.0)
           (-45.0 45.0)
  end
  begin
     id 24 
     name rclavicle
     direction -0.923762 0.370785 0.0958234   
     length 3.54196  
     axis 0 0 0   XYZ 
    dof ry rz
    limits (-10.0 20.0)
           (-20.0 0.0)
  end
  begin
     id 25 
     name rhumerus
     direction -1 -4.48966e-011 1.18702e-017  
     length 5.30252   
     axis 180 30 90   XYZ
    dof rx ry rz
    limits (-90.0 60.0)
           (-90.0 90.0)
           (-90.0 90.0)
  end
  begin
     id 26 
     name rradius
     direction -1 -4.48966e-011 4.46736e-027   
     length 3.67875   
     axis 180 30 90   XYZ
    dof rx
    limits (-10.0 170.0)
  end
  begin
     id 27 
     name rwrist
     direction -1 -4.48966e-011 7.20928e-028   
     length 1.83937   
     axis -5.52449e-016 -90 -90   XYZ
    dof ry
    limits (-180.0 0.0)
  end
  begin
     id 28
     name rhand
     direction -1 -4.48973e-011 1.44186e-027   
     length 0.594811   
     axis -9.20027e-016 -90 -90   XYZ
    dof rx rz
    limits (-90.0 90.0)
           (-45.0 45.0)
  end
  begin
     id 29
     name rfingers
     direction -1 -4.48963e-011 2.88371e-027   
     length 0.479552   
     axis -1.84005e-015 -90 -90   XYZ
    dof rx
    limits (0.0 90.0)
  end
  begin
     id 30
     name rthumb
     direction -0.707107 -6.34932e-011 0.707107   
     length 0.688544   
     axis -90 -45 -2.85299e-015   XYZ
    dof rx rz
    limits (-45.0 45.0)
           (-45.0 45.0)
  end
:hierarchy
  begin
    root lhipjoint rhipjoint lowerback
    lhipjoint lfemur
    lfemur ltibia
    ltibia lfoot
    lfoot ltoes
    rhipjoint rfemur
    rfemur rtibia
    rtibia rfoot
    rfoot rtoes
    lowerback upperback
    upperback thorax
    thorax lowerneck lclavicle rclavicle
    lowerneck upperneck
    upperneck head
    lclavicle lhumerus
    lhumerus lradius
    lradius lwrist
    lwrist lhand lthumb
    lhand lfingers
    rclavicle rhumerus
    rhumerus rradius
    rradius rwrist
    rwrist rhand rthumb
    rhand rfingers
  end

#!OML:ASF E:\acrobat2\Project_11_07_03\Capture day 1\Session 1\Acrobat.ASF
:FULLY-SPECIFIED
:DEGREES
56
root 8.45001 18.156 -31.6171 4.45566 25.506 -1.54981
lowerback -7.03459 -0.659495 -1.13834
upperback -0.126833 -0.778315 -0.129302
thorax 3.82766 -0.404838 0.426335
lowerneck 0.360052 -5.00003 -1.76493
upperneck 1.75702 -6.77062 6.38793
head 0.788143 -3.3556 2.25299
rclavicle 3.41288e-014 -1.70955e-014
rhumerus -39.7306 -3.60151 -80.245
rradius 28.8625
rwrist 1.31298
rhand -5.16933 -41.3646
rfingers 7.12502
rthumb 20.6307 -70.2882
lclavicle 3.41288e-014 -1.70955e-014
lhumerus -30.6574 -11.3214 87.0666
lradius 21.0553
lwrist 9.96916
lhand -12.4518 -12.4599
lfingers 7.12502
lthumb 13.6216 17.0744
rfemur -2.02085 6.52334 14.3421
rtibia -0.039152
rfoot -28.4841 -33.8706
rtoes 23.6691
lfemur 3.14145 -1.07937 -15.6576
ltibia 2.19011
lfoot -20.6022 3.24709
ltoes 31.496
57
root 8.45025 18.1556 -31.6184 4.47218 25.505 -1.48554
lowerback -7.04182 -0.634031 -1.13871
upperback -0.101684 -0.742066 -0.181002
thorax 3.85651 -0.38662 0.376578
lowerneck 0.328853 -5.0902 -1.51025
upperneck 1.6402 -6.88153 6.18732
head 0.743369 -3.4121 2.14204
rclavicle -6.22444e-015 -5.96354e-015
rhumerus -39.7255 -3.6629 -80.2809
rradius 28.8791
rwrist 1.28248
rhand -5.25113 -41.3123
rfingers 7.12502
rthumb 20.5521 -70.2443
lclavicle -6.22444e-015 -5.96354e-015
lhumerus -30.6617 -11.4624 87.0453
lradius 21.1292
lwrist 10.0237
lhand -12.459 -12.1862
lfingers 7.12502
lthumb 13.6146 17.3486
rfemur -2.007 6.45383 14.2605
rtibia -0.0785864
rfoot -28.3523 -33.8613
rtoes 23.45
lfemur 3.158 -1.06007 -15.7401
ltibia 2.18637
lfoot -20.5939 3.19038
ltoes 31.5787
58
root 8.44982 18.1545 -31.6183 4.49402 25.5029 -1.4342
lowerback -7.0618 -0.621813 -1.16153
upperback -0.0962481 -0.72246 -0.20884
thorax 3.87299 -0.377137 0.362394
lowerneck 0.36393 -5.08115 -1.4401
upperneck 1.59489 -6.866 6.13537
head 0.717649 -3.40558 2.11469
rclavicle 6.28781e-014 7.95139e-015
rhumerus -39.7269 -3.64184 -80.313
rradius 28.8867
rwrist 1.25123
rhand -5.27699 -41.3305
rfingers 7.12502
rthumb 20.5273 -70.2652
lclavicle 6.28781e-014 7.95139e-015
lhumerus -30.6924 -11.579 87.0688
lradius 21.2021
lwrist 10.1219
lhand -12.5678 -11.6194
lfingers 7.12502
lthumb 13.5098 17.9224
rfemur -1.99882 6.4018 14.2025
rtibia -0.0893631
rfoot -28.2519 -33.8753
rtoes 23.267
lfemur 3.15586 -1.00929 -15.789
ltibia 2.1807
lfoot -20.5069 3.16805
ltoes 31.6513
59
root 8.44782 18.1548 -31.6198 4.47803 25.4672 -1.46199
lowerback -7.03758 -0.592489 -1.13748
upperback -0.103297 -0.685981 -0.203836
thorax 3.85128 -0.358526 0.358121
lowerneck 0.326024 -5.00912 -1.50577
upperneck 1.75451 -6.77974 6.25075
head 0.777953 -3.35864 2.16169
rclavicle 6.08281e-014 1.19271e-015
rhumerus -39.7704 -3.67566 -80.306
rradius 28.9279
rwrist 1.28156
rhand -5.26533 -41.337
rfingers 7.12502
rthumb 20.5385 -70.2705
lclavicle 6.08281e-014 1.19271e-015
lhumerus -30.6983 -11.6406 87.0858
lradius 21.2224
lwrist 10.1016
lhand -12.5862 -11.3108
lfingers 7.12502
lthumb 13.492 18.2322
rfemur -2.01498 6.42567 14.2421
rtibia -0.0231314
rfoot -28.2978 -33.8543
rtoes 23.2781
lfemur 3.15975 -1.00424 -15.7452
ltibia 2.18395
lfoot -20.5158 3.23587
ltoes 31.5178
60
root 8.44723 18.156 -31.6214 4.48713 25.4541 -1.42506
lowerback -7.05076 -0.559206 -1.15324
upperback -0.111314 -0.639182 -0.228897
thorax 3.84955 -0.335304 0.345811
lowerneck 0.428669 -5.04572 -1.51884
upperneck 1.73518 -6.82827 6.3024
head 0.759071 -3.38465 2.18323
rclavicle -3.51228e-014 -2.78299e-015
rhumerus -39.8506 -3.85869 -80.249
rradius 28.9676
rwrist 1.42868
rhand -5.15919 -41.441
rfingers 7.12502
rthumb 20.6405 -70.3635
lclavicle -3.51228e-014 -2.78299e-015
lhumerus -30.6928 -11.7002 87.0769
lradius 21.1767
lwrist 10.0357
lhand -12.5199 -11.4189
lfingers 7.12502
lthumb 13.556 18.1198
rfemur -2.03424 6.35006 14.1938
rtibia 0.0491262
rfoot -28.2946 -33.7429
rtoes 23.159
lfemur 3.1576 -0.979954 -15.7881
ltibia 2.20212
lfoot -20.5203 3.2317
ltoes 31.4487
61
root 8.44616 18.1565 -31.6214 4.51641 25.4776 -1.4133
lowerback -7.10712 -0.536747 -1.16141
upperback -0.136514 -0.607072 -0.247712
thorax 3.85446 -0.319211 0.333906
lowerneck 0.633632 -5.13825 -1.45124
upperneck 1.50671 -6.9389 6.26894
head 0.653101 -3.44722 2.168
rclavicle -9.33046e-015 7.95139e-016
rhumerus -39.9422 -4.07844 -80.1627
rradius 28.9892
rwrist 1.59888
rhand -5.04373 -41.4779
rfingers 7.12502
rthumb 20.7514 -70.3884
lclavicle -9.33046e-015 7.95139e-016
lhumerus -30.6869 -11.7032 87.0419
lradius 21.0909
lwrist 9.92859
lhand -12.4039 -11.4742
lfingers 7.12502
lthumb 13.6677 18.057
rfemur -2.06455 6.33035 14.1767
rtibia 0.0162706
rfoot -28.2444 -33.7523
rtoes 23.141
lfemur 3.10103 -0.934983 -15.7946
ltibia 2.23966
lfoot -20.462 3.24766
ltoes 31.1362
62
root 8.44363 18.1566 -31.6219 4.52052 25.502 -1.44008
lowerback -7.14896 -0.536858 -1.16209
upperback -0.129482 -0.607444 -0.223818
thorax 3.88552 -0.319779 0.358521
lowerneck 0.747567 -5.1716 -1.31045
upperneck 1.22419 -6.96642 6.16409
head 0.536685 -3.46765 2.11649
rclavicle 3.70236e-015 -1.03368e-014
rhumerus -39.9166 -4.149 -80.0964
rradius 28.9643
rwrist 1.66816
rhand -4.9961 -41.4469
rfingers 7.12502
rthumb 20.7972 -70.3523
lclavicle 3.70236e-015 -1.03368e-014
lhumerus -30.6326 -11.6239 87.0223
lradius 21.0211
lwrist 9.83817
lhand -12.3155 -11.4447
lfingers 7.12502
lthumb 13.753 18.0808
rfemur -2.07898 6.39172 14.2098
rtibia -0.0584307
rfoot -28.2403 -33.8362
rtoes 23.2757
lfemur 3.06324 -0.954445 -15.7526
ltibia 2.26708
lfoot -20.5044 3.30588
ltoes 30.6437
63
root 8.44206 18.157 -31.6227 4.52669 25.513 -1.4001
lowerback -7.24718 -0.564408 -1.23943
upperback -0.0511999 -0.63757 -0.179269
thorax 4.02376 -0.337607 0.443457
lowerneck 0.578117 -4.963 -1.64796
upperneck 1.45505 -6.70528 6.42619
head 0.650165 -3.33087 2.25559
rclavicle -1.85739e-014 -7.95139e-016
rhumerus -39.7457 -4.0415 -80.0597
rradius 28.904
rwrist 1.65982
rhand -4.88671 -41.5243
rfingers 7.12502
rthumb 20.9023 -70.4182
lclavicle -1.85739e-014 -7.95139e-016
lhumerus -30.5077 -11.512 87.0451
lradius 20.9855
lwrist 9.85881
lhand -12.3126 -11.5001
lfingers 7.12502
lthumb 13.7558 18.0251
rfemur -2.06071 6.4385 14.1671
rtibia -0.0975482
rfoot -28.3094 -33.85
rtoes 23.5814
lfemur 3.07596 -0.957729 -15.7833
ltibia 2.27016
lfoot -20.5454 3.27144
ltoes 30.5649
64
root 8.44101 18.1568 -31.6221 4.52702 25.5109 -1.37367
lowerback -7.10136 -0.578714 -1.18674
upperback -0.161199 -0.661923 -0.227504
thorax 3.82699 -0.346835 0.363558
lowerneck 0.704571 -5.02039 -1.50726
upperneck 1.40402 -6.77647 6.29586
head 0.605164 -3.36932 2.19185
rclavicle 2.03257e-014 -7.15625e-015
rhumerus -39.8874 -3.96936 -80.1386
rradius 28.8512
rwrist 1.66055
rhand -4.84538 -41.5138
rfingers 7.12502
rthumb 20.942 -70.4033
lclavicle 2.03257e-014 -7.15625e-015
lhumerus -30.7293 -11.5959 87.0197
lradius 21.0377
lwrist 9.97419
lhand -12.3296 -11.5685
lfingers 7.12502
lthumb 13.7394 17.9579
rfemur -2.04829 6.47002 14.1411
rtibia -0.0991423
rfoot -28.3575 -33.8739
rtoes 23.6813
lfemur 3.08762 -0.967589 -15.7988
ltibia 2.25439
lfoot -20.5397 3.23982
ltoes 30.8024
65
root 8.44013 18.1564 -31.6217 4.50973 25.4957 -1.39359
lowerback -7.13437 -0.576669 -1.15664
upperback -0.149982 -0.661347 -0.221362
thorax 3.85687 -0.346229 0.352661
lowerneck 0.590728 -4.98001 -1.69284
upperneck 1.61879 -6.73701 6.44649
head 0.70338 -3.34421 2.26798
rclavicle -1.94312e-014 -3.57812e-015
rhumerus -39.8714 -3.9788 -80.1333
rradius 28.8234
rwrist 1.71934
rhand -4.78319 -41.4837
rfingers 7.12502
rthumb 21.0017 -70.3666
lclavicle -1.94312e-014 -3.57812e-015
lhumerus -30.7011 -11.6191 87.0044
lradius 20.9814
lwrist 9.99958
lhand -12.3656 -11.6787
lfingers 7.12502
lthumb 13.7047 17.8501
rfemur -2.05461 6.47438 14.1637
rtibia -0.0747669
rfoot -28.3648 -33.8831
rtoes 23.4901
lfemur 3.10042 -1.06553 -15.7877
ltibia 2.2353
lfoot -20.6301 3.2892
ltoes 30.9371
66
root 8.43932 18.1576 -31.6216 4.48302 25.4961 -1.41593
lowerback -7.16169 -0.577047 -1.13938
upperback -0.123433 -0.663627 -0.199453
thorax 3.89983 -0.347548 0.364929
lowerneck 0.60201 -5.07125 -1.57103
upperneck 1.49061 -6.85003 6.32201
head 0.656417 -3.40306 2.2066
rclavicle 1.963e-015 1.98785e-015
rhumerus -39.845 -3.96655 -80.1063
rradius 28.8319
rwrist 1.75594
rhand -4.74472 -41.3872
rfingers 7.12502
rthumb 21.0387 -70.2659
lclavicle 1.963e-015 1.98785e-015
lhumerus -30.6138 -11.5415 86.9908
lradius 20.8613
lwrist 9.91173
lhand -12.4754 -11.8047
lfingers 7.12502
lthumb 13.5988 17.7311
rfemur -2.01857 6.52153 14.1994
rtibia -0.101784
rfoot -28.421 -33.8772
rtoes 23.4767
lfemur 3.13319 -1.08458 -15.7693
ltibia 2.21026
lfoot -20.6558 3.31282
ltoes 30.8909
67
root 8.43901 18.1591 -31.6216 4.43883 25.5043 -1.42714
lowerback -7.12211 -0.574286 -1.11314
upperback -0.115753 -0.663177 -0.187357
thorax 3.88539 -0.34695 0.363082
lowerneck 0.613867 -5.06452 -1.61437
upperneck 1.47858 -6.84105 6.35259
head 0.653139 -3.39909 2.22478
rclavicle 7.78987e-015 -4.37326e-015
rhumerus -39.8314 -3.8994 -80.1132
rradius 28.8054
rwrist 1.69991
rhand -4.85187 -41.2987
rfingers 7.12502
rthumb 20.9357 -70.1889
lclavicle 7.78987e-015 -4.37326e-015
lhumerus -30.6277 -11.5059 87.0009
lradius 20.8424
lwrist 9.84961
lhand -12.5726 -11.8477
lfingers 7.12502
lthumb 13.5052 17.6944
rfemur -1.95969 6.48804 14.2173
rtibia -0.126118
rfoot -28.4018 -33.8149
rtoes 23.5653
lfemur 3.1871 -1.03675 -15.7609
ltibia 2.18247
lfoot -20.5569 3.32991
ltoes 30.6831
